# xmcd
#
# Track frame offsets:
#	150
#	16743
#	43822
#	73347
#	104254
#	131314
#	152974
#	185127
#	207057
#	225578
#	249403
#	278859
#	308758
#
# Disc length: 4273 seconds
#
# Revision: 0
# Processed by: cddbd v1.5.1PL0 Copyright (c) Steve Scherf et al.
# Submitted via: dBpowerAMP V4.0
#
DISCID=b210af0d
DTITLE=Voices of New Orleans - Holy
DYEAR=2002
DGENRE=Gospel
TTITLE0=Medley - Jesus is on the mailine - Glory, glory, halleluyah - This little light of mine - In the name of Jesus
TTITLE1=I'll take you there
TTITLE2=Oh, happy day
TTITLE3=I believe I can fly
TTITLE4=Down by the riverside
TTITLE5=Jesus is the baddest man in town
TTITLE6=Medley - Blessed assurance - Yes, Jesus loves me - He touched me
TTITLE7=Holy, holy, holy
TTITLE8=Jesus is the light of the world
TTITLE9=In the upper room
TTITLE10=I go to the rock
TTITLE11=Can't nobody do me like Jesus
TTITLE12=Oh when the Saints go marchin'
EXTD=
EXTT0=
EXTT1=
EXTT2=
EXTT3=
EXTT4=
EXTT5=
EXTT6=
EXTT7=
EXTT8=
EXTT9=
EXTT10=
EXTT11=
EXTT12=
PLAYORDER=
